<?xml version="1.0" encoding="UTF-8" standalone="no"?>
<!-- Created with Inkscape (http://www.inkscape.org/) -->

<svg
   xmlns:dc="http://purl.org/dc/elements/1.1/"
   xmlns:cc="http://creativecommons.org/ns#"
   xmlns:rdf="http://www.w3.org/1999/02/22-rdf-syntax-ns#"
   xmlns:svg="http://www.w3.org/2000/svg"
   xmlns="http://www.w3.org/2000/svg"
   xmlns:sodipodi="http://sodipodi.sourceforge.net/DTD/sodipodi-0.dtd"
   xmlns:inkscape="http://www.inkscape.org/namespaces/inkscape"
   width="600"
   height="200"
   id="svg2"
   version="1.1"
   inkscape:version="0.48.5 r10040"
   sodipodi:docname="jsoql.svg"
   inkscape:export-filename="C:\Users\Tim Stott\Code\GitHub\jsoql\Images\sock.png"
   inkscape:export-xdpi="90"
   inkscape:export-ydpi="90">
  <defs
     id="defs4" />
  <sodipodi:namedview
     id="base"
     pagecolor="#ffffff"
     bordercolor="#666666"
     borderopacity="1.0"
     inkscape:pageopacity="0.0"
     inkscape:pageshadow="2"
     inkscape:zoom="1.4"
     inkscape:cx="473.98495"
     inkscape:cy="124.87286"
     inkscape:document-units="px"
     inkscape:current-layer="layer1"
     showgrid="false"
     inkscape:window-width="1600"
     inkscape:window-height="838"
     inkscape:window-x="-8"
     inkscape:window-y="-8"
     inkscape:window-maximized="1" />
  <metadata
     id="metadata7">
    <rdf:RDF>
      <cc:Work
         rdf:about="">
        <dc:format>image/svg+xml</dc:format>
        <dc:type
           rdf:resource="http://purl.org/dc/dcmitype/StillImage" />
        <dc:title></dc:title>
      </cc:Work>
    </rdf:RDF>
  </metadata>
  <g
     inkscape:label="Layer 1"
     inkscape:groupmode="layer"
     id="layer1"
     transform="translate(0,-852.36218)">
    <path
       style="fill:#ffffff;fill-opacity:1;stroke:#000000;stroke-width:4;stroke-linecap:butt;stroke-linejoin:miter;stroke-miterlimit:4;stroke-opacity:1;stroke-dasharray:none"
       d="m 104.63128,878.61594 c 39.90103,2.02031 40.4061,2.02031 40.4061,2.02031 l -7.07107,78.28682 c 0,0 12.12184,42.93153 -12.12183,46.46703 -24.24366,3.5355 -76.771583,12.6269 -76.771583,12.6269 0,0 -38.385796,0 -33.335034,-15.6574 5.050763,-15.65734 29.294424,-21.71825 29.294424,-21.71825 l 35.860416,-10.10153 c 0,0 19.192887,-5.05076 18.68782,-25.75889 -0.50508,-20.70812 5.050757,-66.16499 5.050757,-66.16499 z"
       id="path3009"
       inkscape:connector-curvature="0" />
    <path
       style="fill:none;stroke:#000000;stroke-width:4;stroke-linecap:butt;stroke-linejoin:miter;stroke-miterlimit:4;stroke-opacity:1;stroke-dasharray:none"
       d="m 103.62113,892.253 39.90102,2.02031"
       id="path3011"
       inkscape:connector-curvature="0" />
    <path
       style="fill:none;stroke:#000000;stroke-width:4;stroke-linecap:butt;stroke-linejoin:miter;stroke-miterlimit:4;stroke-opacity:1;stroke-dasharray:none"
       d="m 139.98662,970.53982 c 0,0 -26.26397,10.10153 -19.1929,35.35538"
       id="path3015"
       inkscape:connector-curvature="0" />
    <path
       style="fill:none;stroke:#000000;stroke-width:4;stroke-linecap:butt;stroke-linejoin:miter;stroke-miterlimit:4;stroke-opacity:1;stroke-dasharray:none"
       d="m 50.08305,1018.017 c 0,-6.566 4.04061,-19.69798 -7.576144,-35.86042"
       id="path3789"
       inkscape:connector-curvature="0" />
    <path
       style="fill:#800000;fill-opacity:1;stroke-width:4;stroke-miterlimit:4;stroke-dasharray:none"
       d="m 52.89926,1009.9132 c 0.558879,-7.9669 -0.988714,-15.26488 -4.88607,-23.04131 -1.095616,-2.18609 -1.924496,-4.03764 -1.841955,-4.11455 0.08254,-0.0769 8.332311,-2.43361 18.332821,-5.23709 21.372457,-5.99142 24.086647,-7.1374 29.341027,-12.3883 3.94589,-3.94327 6.297317,-8.16393 7.200077,-12.92368 0.28978,-1.52785 0.6673,-7.43725 0.83892,-13.13198 0.28409,-9.42651 2.35984,-37.89365 3.10116,-42.52959 0.36391,-2.2758 -2.10124,-2.15407 20.11154,-0.99318 l 16.14602,0.84382 -0.15069,2.27285 c -0.0829,1.25006 -1.33009,15.35847 -2.77159,31.35201 l -2.6209,29.07917 0.87327,3.75079 c 1.37016,5.88493 1.3347,6.01845 -2.12426,7.99917 -12.2095,6.99154 -18.95744,19.59508 -16.70929,31.20897 0.48908,2.5266 2.37295,1.9396 -15.10203,4.7057 -7.083687,1.1213 -20.852847,3.3962 -30.598128,5.0552 -9.745279,1.6591 -18.116193,3.0165 -18.602032,3.0165 -0.804296,0 -0.85243,-0.4406 -0.53789,-4.9245 l 0,0 z"
       id="path2994"
       inkscape:connector-curvature="0" />
    <path
       style="fill:#800000;fill-opacity:1;stroke:#000000;stroke-width:2;stroke-miterlimit:4;stroke-opacity:1;stroke-dasharray:none"
       d="m 40.894357,1015.2855 c -14.351671,-1.384 -23.109856,-5.295 -23.109856,-10.3198 0,-5.97576 8.871092,-14.62722 19.630903,-19.14492 1.768758,-0.74265 3.490252,-1.245 3.825542,-1.11634 0.839728,0.32224 4.013131,6.4898 5.276161,10.25431 1.643277,4.89785 2.224936,9.88305 1.829695,15.68175 l -0.354932,5.2074 -1.340356,-0.068 c -0.737196,-0.037 -3.327917,-0.2599 -5.757157,-0.4942 z"
       id="path2996"
       inkscape:connector-curvature="0" />
    <path
       style="fill:#800000;fill-opacity:1;stroke:#000000;stroke-width:2;stroke-miterlimit:4;stroke-opacity:1;stroke-dasharray:none"
       d="m 122.422,1002.7804 c -0.77366,-1.8748 -0.2811,-9.88618 0.78703,-12.80062 2.06079,-5.62298 7.4706,-11.72384 13.3021,-15.00133 l 1.9866,-1.11653 -0.007,6.47204 c -0.0163,14.1513 -4.0239,21.14114 -13.06315,22.78404 -2.28092,0.4146 -2.71484,0.3658 -3.00511,-0.3376 z"
       id="path2998"
       inkscape:connector-curvature="0" />
    <path
       style="fill:#800000;fill-opacity:1;stroke:#000000;stroke-width:2;stroke-miterlimit:4;stroke-opacity:1;stroke-dasharray:none"
       d="m 123.15184,891.04142 c -9.41252,-0.50811 -17.2157,-1.02588 -17.34042,-1.1506 -0.26195,-0.26195 0.6592,-8.35428 0.98845,-8.68353 0.12063,-0.12064 8.22257,0.17072 18.00429,0.64746 l 17.78495,0.8668 -0.3159,4.05998 c -0.37495,4.81882 -0.51106,5.34438 -1.36052,5.2532 -0.35596,-0.0382 -8.34834,-0.4852 -17.76085,-0.99331 l 0,0 z"
       id="path3000"
       inkscape:connector-curvature="0" />
    <path
       style="fill:#ffffff;fill-opacity:1;stroke:#000000;stroke-width:3;stroke-linejoin:miter;stroke-miterlimit:4;stroke-opacity:1;stroke-dasharray:none"
       d="m 53.012624,1006.6302 c -0.232521,-6.82431 -0.436478,-8.22058 -1.789118,-12.24806 -0.839674,-2.50013 -2.223971,-6.08905 -3.076215,-7.97539 -1.092729,-2.41862 -1.366937,-3.4916 -0.930143,-3.63968 0.340665,-0.11548 7.068702,-2.05579 14.951194,-4.31179 16.253171,-4.65172 23.601841,-7.10363 26.657531,-8.89438 3.07702,-1.80326 8.82388,-8.08285 10.35333,-11.31308 1.950507,-4.11955 2.336397,-6.86425 3.192457,-22.70706 0.76699,-14.19453 2.63473,-38.54536 3.05076,-39.77476 0.14655,-0.43307 1.44793,-0.63034 4.14384,-0.62814 4.31032,0.003 31.0406,1.4325 31.28032,1.67222 0.082,0.082 -1.09672,14.11428 -2.61935,31.18289 -2.66258,29.84749 -2.73929,31.16314 -2.00657,34.41654 1.35852,6.03208 1.37496,5.99085 -3.80377,9.53783 -5.42236,3.71385 -9.34533,7.88268 -11.76273,12.49994 -2.77396,5.29827 -3.51342,8.52261 -3.28109,14.30686 l 0.20047,4.99116 -1.78601,0.4706 c -2.16213,0.5698 -60.283902,10.1167 -61.590489,10.1167 -0.840808,0 -0.945082,-0.6781 -1.184417,-7.7024 z"
       id="path3002"
       inkscape:connector-curvature="0" />
    <flowRoot
       xml:space="preserve"
       id="flowRoot3013"
       style="font-size:40px;font-style:normal;font-variant:normal;font-weight:600;font-stretch:normal;text-align:start;line-height:125%;letter-spacing:0px;word-spacing:0px;writing-mode:lr-tb;text-anchor:start;fill:#800000;fill-opacity:1;stroke:#000000;stroke-width:1.44403279;stroke-miterlimit:4;stroke-opacity:1;stroke-dasharray:none;font-family:Segoe UI Semibold;-inkscape-font-specification:'Segoe UI Semibold, Semi-Bold'"
       transform="matrix(4.2033706,0,0,4.2411783,-781.95374,583.41848)"><flowRegion
         id="flowRegion3015"><rect
           id="rect3017"
           width="385.71429"
           height="117.85714"
           x="223.57143"
           y="65"
           style="font-size:40px;font-style:normal;font-variant:normal;font-weight:600;font-stretch:normal;text-align:start;line-height:125%;writing-mode:lr-tb;text-anchor:start;fill:#800000;fill-opacity:1;stroke:#000000;stroke-width:1.44403279;stroke-miterlimit:4;stroke-opacity:1;stroke-dasharray:none;font-family:Segoe UI Semibold;-inkscape-font-specification:'Segoe UI Semibold, Semi-Bold'" /></flowRegion><flowPara
         id="flowPara3019">SOQL</flowPara></flowRoot>  </g>
</svg>
