<?xml version="1.0" encoding="UTF-8" standalone="no"?>
<!-- Created with Inkscape (http://www.inkscape.org/) -->

<svg
   xmlns:dc="http://purl.org/dc/elements/1.1/"
   xmlns:cc="http://creativecommons.org/ns#"
   xmlns:rdf="http://www.w3.org/1999/02/22-rdf-syntax-ns#"
   xmlns:svg="http://www.w3.org/2000/svg"
   xmlns="http://www.w3.org/2000/svg"
   xmlns:sodipodi="http://sodipodi.sourceforge.net/DTD/sodipodi-0.dtd"
   xmlns:inkscape="http://www.inkscape.org/namespaces/inkscape"
   width="200"
   height="200"
   id="svg2"
   version="1.1"
   inkscape:version="0.48.5 r10040"
   sodipodi:docname="sock.svg"
   inkscape:export-filename="C:\Users\Tim Stott\Code\GitHub\jsoql\Images\sock.png"
   inkscape:export-xdpi="90"
   inkscape:export-ydpi="90">
  <defs
     id="defs4" />
  <sodipodi:namedview
     id="base"
     pagecolor="#ffffff"
     bordercolor="#666666"
     borderopacity="1.0"
     inkscape:pageopacity="0.0"
     inkscape:pageshadow="2"
     inkscape:zoom="1.979899"
     inkscape:cx="-44.420379"
     inkscape:cy="111.3666"
     inkscape:document-units="px"
     inkscape:current-layer="layer1"
     showgrid="false"
     inkscape:window-width="1920"
     inkscape:window-height="1018"
     inkscape:window-x="-8"
     inkscape:window-y="-8"
     inkscape:window-maximized="1" />
  <metadata
     id="metadata7">
    <rdf:RDF>
      <cc:Work
         rdf:about="">
        <dc:format>image/svg+xml</dc:format>
        <dc:type
           rdf:resource="http://purl.org/dc/dcmitype/StillImage" />
        <dc:title />
      </cc:Work>
    </rdf:RDF>
  </metadata>
  <g
     inkscape:label="Layer 1"
     inkscape:groupmode="layer"
     id="layer1"
     transform="translate(0,-852.36218)">
    <path
       style="fill:#ffffff;fill-opacity:1;stroke:#000000;stroke-width:4;stroke-linecap:butt;stroke-linejoin:miter;stroke-miterlimit:4;stroke-opacity:1;stroke-dasharray:none"
       d="m 126.77414,878.61594 c 39.90103,2.02031 40.4061,2.02031 40.4061,2.02031 l -7.07107,78.28682 c 0,0 12.12184,42.93153 -12.12183,46.46703 -24.24366,3.5355 -76.771586,12.6269 -76.771586,12.6269 0,0 -38.385796,0 -33.335034,-15.6574 5.050763,-15.65734 29.294424,-21.71825 29.294424,-21.71825 l 35.860416,-10.10153 c 0,0 19.19289,-5.05076 18.68782,-25.75889 -0.50508,-20.70812 5.05076,-66.16499 5.05076,-66.16499 z"
       id="path3009"
       inkscape:connector-curvature="0" />
    <path
       style="fill:none;stroke:#000000;stroke-width:4;stroke-linecap:butt;stroke-linejoin:miter;stroke-miterlimit:4;stroke-opacity:1;stroke-dasharray:none"
       d="m 125.76399,892.253 39.90102,2.02031"
       id="path3011"
       inkscape:connector-curvature="0" />
    <path
       style="fill:none;stroke:#000000;stroke-width:4;stroke-linecap:butt;stroke-linejoin:miter;stroke-miterlimit:4;stroke-opacity:1;stroke-dasharray:none"
       d="m 162.12948,970.53982 c 0,0 -26.26397,10.10153 -19.1929,35.35538"
       id="path3015"
       inkscape:connector-curvature="0" />
    <path
       style="fill:none;stroke:#000000;stroke-width:4;stroke-linecap:butt;stroke-linejoin:miter;stroke-miterlimit:4;stroke-opacity:1;stroke-dasharray:none"
       d="m 72.225907,1018.017 c 0,-6.566 4.04061,-19.69798 -7.576144,-35.86042"
       id="path3789"
       inkscape:connector-curvature="0" />
    <path
       style="fill:#800000;fill-opacity:1;stroke-width:4;stroke-miterlimit:4;stroke-dasharray:none"
       d="m 75.042117,157.55106 c 0.558879,-7.9669 -0.988714,-15.26492 -4.88607,-23.04135 -1.095616,-2.18609 -1.924496,-4.03764 -1.841955,-4.11455 0.08254,-0.0769 8.332311,-2.43361 18.332821,-5.23709 21.372457,-5.99142 24.086647,-7.1374 29.341027,-12.3883 3.94589,-3.94327 6.29732,-8.16393 7.20008,-12.923677 0.28978,-1.527856 0.6673,-7.437248 0.83892,-13.131983 0.28409,-9.426514 2.35984,-37.893652 3.10116,-42.529588 0.36391,-2.275806 -2.10124,-2.154067 20.11154,-0.993181 l 16.14602,0.843824 -0.15069,2.272844 c -0.0829,1.250063 -1.33009,15.35847 -2.77159,31.352014 l -2.6209,29.079167 0.87327,3.75079 c 1.37016,5.88493 1.3347,6.01845 -2.12426,7.99917 -12.2095,6.99154 -18.95744,19.59508 -16.70929,31.20897 0.48908,2.52659 2.37295,1.93958 -15.10203,4.70574 -7.08369,1.1213 -20.85285,3.39614 -30.598131,5.0552 -9.745279,1.65907 -18.116193,3.01649 -18.602032,3.01649 -0.804296,0 -0.85243,-0.44068 -0.53789,-4.92449 l 0,0 z"
       id="path2994"
       inkscape:connector-curvature="0"
       transform="translate(0,852.36218)" />
    <path
       style="fill:#800000;fill-opacity:1;stroke-width:2;stroke-miterlimit:4;stroke-dasharray:none;stroke:#000000;stroke-opacity:1"
       d="m 63.037214,162.92328 c -14.351671,-1.38392 -23.109856,-5.29492 -23.109856,-10.3198 0,-5.97572 8.871092,-14.62718 19.630903,-19.14488 1.768758,-0.74265 3.490252,-1.245 3.825542,-1.11634 0.839728,0.32224 4.013131,6.4898 5.276161,10.25431 1.643277,4.89785 2.224936,9.88309 1.829695,15.6818 l -0.354932,5.20733 -1.340356,-0.0683 c -0.737196,-0.0375 -3.327917,-0.25992 -5.757157,-0.49416 z"
       id="path2996"
       inkscape:connector-curvature="0"
       transform="translate(0,852.36218)" />
    <path
       style="fill:#800000;fill-opacity:1;stroke-width:2;stroke-miterlimit:4;stroke-dasharray:none;stroke:#000000;stroke-opacity:1"
       d="m 144.56486,150.41823 c -0.77366,-1.87483 -0.2811,-9.88619 0.78703,-12.80063 2.06079,-5.62298 7.4706,-11.72384 13.3021,-15.00133 l 1.9866,-1.11653 -0.007,6.47204 c -0.0163,14.1513 -4.0239,21.1411 -13.06315,22.78404 -2.28092,0.41457 -2.71484,0.36582 -3.00511,-0.33759 z"
       id="path2998"
       inkscape:connector-curvature="0"
       transform="translate(0,852.36218)" />
    <path
       style="fill:#800000;fill-opacity:1;stroke-width:2;stroke-miterlimit:4;stroke-dasharray:none;stroke:#000000;stroke-opacity:1"
       d="m 145.2947,38.679241 c -9.41252,-0.508111 -17.2157,-1.02588 -17.34042,-1.150597 -0.26195,-0.261952 0.6592,-8.354285 0.98845,-8.683533 0.12063,-0.120638 8.22257,0.170718 18.00429,0.647459 l 17.78495,0.8668 -0.3159,4.059978 c -0.37495,4.818825 -0.51106,5.34438 -1.36052,5.2532 -0.35596,-0.03821 -8.34834,-0.485196 -17.76085,-0.993307 l 0,0 z"
       id="path3000"
       inkscape:connector-curvature="0"
       transform="translate(0,852.36218)" />
    <path
       style="fill:#ffffff;fill-opacity:1;stroke-width:3;stroke-miterlimit:4;stroke-dasharray:none;stroke:#000000;stroke-opacity:1;stroke-linejoin:miter"
       d="m 75.155481,154.26806 c -0.232521,-6.82435 -0.436478,-8.22062 -1.789118,-12.2481 -0.839674,-2.50013 -2.223971,-6.08905 -3.076215,-7.97539 -1.092729,-2.41862 -1.366937,-3.4916 -0.930143,-3.63968 0.340665,-0.11548 7.068702,-2.05579 14.951194,-4.31179 16.253171,-4.65172 23.601841,-7.10363 26.657531,-8.89438 3.07702,-1.80326 8.82388,-8.08285 10.35333,-11.31308 1.95051,-4.11955 2.3364,-6.864251 3.19246,-22.707064 0.76699,-14.194523 2.63473,-38.545358 3.05076,-39.774756 0.14655,-0.43307 1.44793,-0.630337 4.14384,-0.628135 4.31032,0.0035 31.0406,1.432494 31.28032,1.672214 0.082,0.08198 -1.09672,14.114283 -2.61935,31.182891 -2.66258,29.84749 -2.73929,31.16314 -2.00657,34.41654 1.35852,6.03208 1.37496,5.99085 -3.80377,9.53783 -5.42236,3.71385 -9.34533,7.88268 -11.76273,12.49994 -2.77396,5.29827 -3.51342,8.52261 -3.28109,14.30686 l 0.20047,4.99116 -1.78601,0.47064 c -2.16213,0.56977 -60.283905,10.11671 -61.590492,10.11671 -0.840808,0 -0.945082,-0.67811 -1.184417,-7.70241 z"
       id="path3002"
       inkscape:connector-curvature="0"
       transform="translate(0,852.36218)" />
  </g>
</svg>
